<svg  viewBox="0 0 369.5373134328358 68.81575462523412" class="looka-1j8o68f">
  <defs id="SvgjsDefs2275"/>
  <g id="SvgjsG2276" featurekey="5TMTKC-0" transform="matrix(1.3018280267715454,0,0,1.3018280267715454,0,1.8972617439180475)" fill="currentColor">
    <title xmlns="http://www.w3.org/2000/svg">Asset 38LETTERS4</title>
    <g xmlns="http://www.w3.org/2000/svg" id="Page-1" stroke="none" stroke-width="1" fill="none" fill-rule="evenodd">
      <g id="Artboard" transform="translate(-4730.000000, -501.000000)">
        <g id="Asset-38LETTERS4" transform="translate(4730.000000, 501.078910)">
          <path d="M2.65,35.68 L2.65,47.66 L6.9,47.66 L6.9,30.08 C4.45,30.77 2.65,33.02 2.65,35.68 Z" id="Path"/>
          <path d="M26.6,18.2 C26.6,17.1 25.7,16.2 24.6,16.2 L16.32,16.2 L16.32,20.2 L24.6,20.2 C25.7,20.2 26.6,19.3 26.6,18.2 Z" id="Path"/>
          <path d="M25.77,2.65 L2.65,2.65 L2.65,14.38 C2.65,17.13 4.57,19.45 7.15,20.05 L7.15,8.34 C7.15,7.61 7.74,7.02 8.47,7.02 L25.34,7.02 C31.64,7.02 36.76,12.14 36.76,18.44 C36.76,24.74 31.64,29.86 25.34,29.86 L16.44,29.86 L16.44,47.66 L20.75,47.66 L20.75,35.44 C20.75,34.71 21.34,34.12 22.07,34.12 L25.76,34.12 C34.44,34.12 41.49,27.06 41.49,18.39 C41.49,9.72 34.45,2.65 25.77,2.65 Z" id="Path"/>
          <path d="M25.77,0 L1.32,0 C0.59,0 0,0.59 0,1.32 L0,14.38 C0,19.05 3.8,22.85 8.47,22.85 L24.6,22.85 C27.16,22.85 29.25,20.76 29.25,18.2 C29.25,15.64 27.16,13.55 24.6,13.55 L14.99,13.55 C14.26,13.55 13.67,14.14 13.67,14.87 L13.67,20.2 L9.79,20.2 L9.79,9.67 L25.34,9.67 C30.18,9.67 34.11,13.61 34.11,18.44 C34.11,23.27 30.17,27.21 25.34,27.21 L8.47,27.21 C8.41,27.21 8.35,27.21 8.29,27.21 C8.21,27.21 8.13,27.21 8.06,27.21 C3.58,27.42 0,31.13 0,35.67 L0,48.97 C0,49.7 0.59,50.29 1.32,50.29 L8.22,50.29 C8.95,50.29 9.54,49.7 9.54,48.97 L9.54,29.86 L13.79,29.86 L13.79,48.98 C13.79,49.71 14.38,50.3 15.11,50.3 L22.07,50.3 C22.8,50.3 23.39,49.71 23.39,48.98 L23.39,36.76 L25.76,36.76 C35.9,36.76 44.14,28.51 44.14,18.38 C44.14,8.25 35.91,0 25.77,0 Z M16.32,16.19 L24.6,16.19 C25.7,16.19 26.6,17.09 26.6,18.19 C26.6,19.29 25.7,20.19 24.6,20.19 L16.32,20.19 L16.32,16.19 Z M6.9,47.66 L2.65,47.66 L2.65,35.68 C2.65,33.02 4.45,30.76 6.9,30.08 L6.9,47.66 L6.9,47.66 Z M25.77,34.11 L22.08,34.11 C21.35,34.11 20.76,34.7 20.76,35.43 L20.76,47.65 L16.45,47.65 L16.45,29.86 L25.35,29.86 C31.65,29.86 36.77,24.74 36.77,18.44 C36.77,12.14 31.65,7.02 25.35,7.02 L8.47,7.02 C7.74,7.02 7.15,7.61 7.15,8.34 L7.15,20.04 C4.58,19.44 2.65,17.13 2.65,14.37 L2.65,2.65 L25.77,2.65 C34.45,2.65 41.5,9.71 41.5,18.38 C41.5,27.05 34.44,34.11 25.77,34.11 L25.77,34.11 Z" id="Shape" fill="currentColor" fill-rule="nonzero"/>
        </g>
      </g>
    </g>
  </g>
  <g id="SvgjsG2277" featurekey="7UBp9i-0" transform="matrix(4.694116115570068,0,0,4.694116115570068,68.9261201871311,-26.47481637155621)" fill="currentColor">
    <path d="M3.66 7.300000000000001 l0 4.98 l3.86 0 c1.74 0 2.92 -0.64 2.92 -2.58 c0 -1.82 -1.24 -2.4 -2.84 -2.4 l-3.94 0 z M3.66 13.940000000000001 l0 6.06 l-1.94 0 l0 -14.36 l6.46 0 c2.66 0 4.26 1.72 4.26 4.04 c0 2 -1.14 4.26 -4.26 4.26 l-4.52 0 z M16.64 13.92 l0 6.08 l-1.76 0 l0 -10.46 l1.66 0 l0 1.74 l0.04 0 c0.7 -1.22 1.62 -2.04 2.94 -2.04 c0.22 0 0.32 0.02 0.46 0.06 l0 1.82 l-0.66 0 c-1.64 0 -2.68 1.28 -2.68 2.8 z M28.42 16.72 l1.76 0 c-0.06 0.5 -0.54 1.98 -1.86 2.86 c-0.48 0.32 -1.16 0.72 -2.84 0.72 c-2.94 0 -4.68 -2.22 -4.68 -5.24 c0 -3.24 1.56 -5.82 5.02 -5.82 c3.02 0 4.5 2.4 4.5 6.1 l-7.64 0 c0 2.18 1.02 3.44 3.04 3.44 c1.66 0 2.64 -1.28 2.7 -2.06 z M22.68 13.940000000000001 l5.82 0 c-0.1 -1.62 -0.78 -3.12 -2.92 -3.12 c-1.62 0 -2.9 1.5 -2.9 3.12 z M40.66 13.059999999999999 l-1.7 0 c-0.22 -1.4 -1 -2.24 -2.48 -2.24 c-2.18 0 -2.88 2.08 -2.88 3.94 c0 1.8 0.44 4.02 2.86 4.02 c1.18 0 2.2 -0.88 2.5 -2.48 l1.7 0 c-0.18 1.66 -1.2 4 -4.26 4 c-2.94 0 -4.68 -2.22 -4.68 -5.24 c0 -3.24 1.56 -5.82 5.02 -5.82 c2.74 0 3.78 2 3.92 3.82 z M43.980000000000004 12.719999999999999 l-1.62 0 c0.08 -2.5 1.74 -3.48 4.32 -3.48 c0.84 0 3.88 0.24 3.88 2.92 l0 6.02 c0 0.44 0.22 0.62 0.58 0.62 c0.16 0 0.38 -0.04 0.58 -0.08 l0 1.28 c-0.3 0.08 -0.56 0.2 -0.96 0.2 c-1.56 0 -1.8 -0.8 -1.86 -1.6 c-0.68 0.74 -1.74 1.7 -3.78 1.7 c-1.92 0 -3.28 -1.22 -3.28 -3.02 c0 -0.88 0.26 -2.92 3.18 -3.28 l2.9 -0.36 c0.42 -0.04 0.92 -0.2 0.92 -1.24 c0 -1.1 -0.8 -1.7 -2.46 -1.7 c-2 0 -2.28 1.22 -2.4 2.02 z M48.800000000000004 16.38 l0 -1.72 c-0.28 0.22 -0.72 0.38 -2.9 0.66 c-0.86 0.12 -2.24 0.38 -2.24 1.7 c0 1.14 0.58 1.82 1.9 1.82 c1.64 0 3.24 -1.06 3.24 -2.46 z M55.540000000000006 13.92 l0 6.08 l-1.76 0 l0 -10.46 l1.66 0 l0 1.74 l0.04 0 c0.7 -1.22 1.62 -2.04 2.94 -2.04 c0.22 0 0.32 0.02 0.46 0.06 l0 1.82 l-0.66 0 c-1.64 0 -2.68 1.28 -2.68 2.8 z M64.04 11 l-1.68 0 l0 6.8 c0 0.82 0.7 0.82 1.06 0.82 l0.62 0 l0 1.38 c-0.64 0.06 -1.14 0.14 -1.32 0.14 c-1.74 0 -2.12 -0.98 -2.12 -2.24 l0 -6.9 l-1.42 0 l0 -1.46 l1.42 0 l0 -2.92 l1.76 0 l0 2.92 l1.68 0 l0 1.46 z"/>
  </g>
</svg>
