<svg class="hq6gx ljyfw" width="120"  viewBox="0 0 120 30" fill="none" xmlns="http://www.w3.org/2000/svg">
                    <path d="M44.8796 6.8648H38.2415C38.0218 6.86466 37.8092 6.94301 37.6421 7.08573C37.475 7.22845 37.3643 7.42616 37.3301 7.64324L34.6454 24.6651C34.633 24.7441 34.6379 24.8248 34.6598 24.9017C34.6816 24.9786 34.7199 25.0498 34.7719 25.1105C34.824 25.1712 34.8885 25.2199 34.9612 25.2533C35.0338 25.2866 35.1128 25.3039 35.1928 25.3037H38.3619C38.5818 25.3038 38.7945 25.2254 38.9616 25.0824C39.1287 24.9395 39.2393 24.7416 39.2733 24.5243L39.9974 19.9333C40.0314 19.7162 40.1418 19.5184 40.3087 19.3755C40.4756 19.2326 40.6881 19.154 40.9078 19.1539H43.0092C47.3819 19.1539 49.9055 17.0379 50.5646 12.8448C50.8616 11.0103 50.5772 9.56895 49.7182 8.55951C48.7747 7.45105 47.1014 6.8648 44.8796 6.8648ZM45.6454 13.0816C45.2824 15.4636 43.4625 15.4636 41.7028 15.4636H40.7011L41.4038 11.0152C41.4244 10.885 41.4907 10.7665 41.5909 10.6809C41.6911 10.5953 41.8185 10.5483 41.9503 10.5483H42.4094C43.6081 10.5483 44.7389 10.5483 45.3232 11.2316C45.6717 11.6393 45.7784 12.245 45.6454 13.0816ZM64.7221 13.005H61.5433C61.4115 13.005 61.2841 13.052 61.1839 13.1376C61.0837 13.2232 61.0174 13.3417 60.9968 13.4718L60.8561 14.3609L60.6338 14.0387C59.9456 13.0399 58.4111 12.706 56.8794 12.706C53.3668 12.706 50.3666 15.3665 49.7822 19.0985C49.4784 20.9602 49.9104 22.7403 50.9664 23.9817C51.9351 25.1232 53.3211 25.5988 54.9702 25.5988C57.8006 25.5988 59.3701 23.7789 59.3701 23.7789L59.2284 24.6622C59.2157 24.7411 59.2204 24.8219 59.242 24.8989C59.2636 24.9759 59.3016 25.0473 59.3534 25.1082C59.4053 25.1691 59.4697 25.218 59.5423 25.2516C59.6149 25.2852 59.6939 25.3026 59.7738 25.3028H62.6372C62.8571 25.3029 63.0698 25.2244 63.2369 25.0815C63.404 24.9385 63.5146 24.7406 63.5486 24.5234L65.2666 13.6436C65.2792 13.5648 65.2746 13.4842 65.2531 13.4074C65.2315 13.3306 65.1936 13.2593 65.1418 13.1986C65.09 13.1379 65.0257 13.0891 64.9532 13.0557C64.8807 13.0222 64.8019 13.0049 64.7221 13.005ZM60.2912 19.1917C59.9845 21.0078 58.5431 22.2269 56.7047 22.2269C55.7817 22.2269 55.044 21.9308 54.5703 21.3698C54.1005 20.8127 53.922 20.0197 54.0714 19.1364C54.3578 17.3359 55.8234 16.077 57.6336 16.077C58.5363 16.077 59.2701 16.3769 59.7535 16.9428C60.2378 17.5145 60.43 18.3123 60.2912 19.1917ZM81.6517 13.005H78.4574C78.3067 13.0052 78.1584 13.0422 78.0253 13.1127C77.8922 13.1833 77.7783 13.2852 77.6935 13.4097L73.2878 19.8993L71.4204 13.663C71.363 13.4728 71.246 13.3061 71.0866 13.1876C70.9271 13.0691 70.7338 13.0051 70.5351 13.005H67.3961C67.308 13.0047 67.2211 13.0255 67.1427 13.0657C67.0643 13.1058 66.9965 13.1641 66.9452 13.2357C66.8938 13.3073 66.8603 13.3901 66.8474 13.4773C66.8345 13.5644 66.8426 13.6534 66.871 13.7368L70.3895 24.0623L67.0817 28.732C67.0229 28.8148 66.988 28.9121 66.9809 29.0134C66.9738 29.1147 66.9946 29.216 67.0413 29.3062C67.0879 29.3965 67.1584 29.4721 67.2451 29.5249C67.3319 29.5777 67.4315 29.6056 67.533 29.6055H70.7234C70.8724 29.6057 71.0192 29.5698 71.1512 29.5008C71.2833 29.4319 71.3966 29.3319 71.4815 29.2095L82.106 13.8737C82.1635 13.7907 82.1973 13.6936 82.2036 13.5928C82.2099 13.492 82.1885 13.3913 82.1417 13.3019C82.0949 13.2124 82.0245 13.1374 81.9381 13.085C81.8518 13.0327 81.7527 13.005 81.6517 13.005Z" fill="#253B80"></path>
                    <path d="M92.2276 6.8648H85.5886C85.369 6.86489 85.1566 6.94334 84.9897 7.08605C84.8228 7.22875 84.7123 7.42633 84.6781 7.64324L81.9934 24.6651C81.9809 24.7439 81.9856 24.8245 82.0073 24.9014C82.029 24.9782 82.067 25.0494 82.1189 25.1101C82.1707 25.1708 82.2351 25.2196 82.3076 25.253C82.3801 25.2864 82.459 25.3037 82.5389 25.3037H85.9457C86.0994 25.3035 86.248 25.2484 86.3647 25.1485C86.4815 25.0485 86.5587 24.9101 86.5825 24.7582L87.3444 19.9333C87.3784 19.7162 87.4888 19.5184 87.6557 19.3755C87.8227 19.2326 88.0351 19.154 88.2549 19.1539H90.3553C94.7289 19.1539 97.2516 17.0379 97.9116 12.8448C98.2096 11.0103 97.9232 9.56895 97.0642 8.5595C96.1218 7.45105 94.4494 6.8648 92.2276 6.8648ZM92.9934 13.0816C92.6314 15.4636 90.8115 15.4636 89.0508 15.4636H88.0501L88.7538 11.0152C88.7739 10.885 88.84 10.7664 88.9401 10.6808C89.0401 10.5951 89.1675 10.5482 89.2992 10.5483H89.7583C90.9561 10.5483 92.0878 10.5483 92.6722 11.2316C93.0206 11.6393 93.1264 12.245 92.9934 13.0816ZM112.069 13.005H108.892C108.761 13.0046 108.633 13.0515 108.533 13.1372C108.433 13.2229 108.367 13.3416 108.347 13.4718L108.206 14.3609L107.983 14.0387C107.295 13.0399 105.761 12.706 104.229 12.706C100.717 12.706 97.7175 15.3665 97.1331 19.0985C96.8303 20.9602 97.2603 22.7403 98.3163 23.9817C99.287 25.1232 100.671 25.5988 102.32 25.5988C105.15 25.5988 106.72 23.7789 106.72 23.7789L106.578 24.6622C106.566 24.7413 106.57 24.8222 106.592 24.8994C106.614 24.9765 106.652 25.048 106.704 25.1089C106.756 25.1699 106.821 25.2187 106.894 25.2522C106.966 25.2857 107.046 25.3029 107.126 25.3028H109.988C110.208 25.3026 110.42 25.224 110.587 25.0811C110.754 24.9382 110.865 24.7404 110.899 24.5234L112.618 13.6436C112.63 13.5646 112.625 13.4838 112.603 13.4069C112.581 13.33 112.542 13.2588 112.49 13.1981C112.438 13.1375 112.374 13.0888 112.301 13.0554C112.228 13.0221 112.149 13.0049 112.069 13.005ZM107.638 19.1917C107.333 21.0078 105.89 22.2269 104.052 22.2269C103.131 22.2269 102.391 21.9308 101.917 21.3698C101.448 20.8127 101.271 20.0197 101.418 19.1364C101.707 17.3359 103.17 16.077 104.981 16.077C105.883 16.077 106.617 16.3769 107.1 16.9428C107.587 17.5145 107.779 18.3123 107.638 19.1917ZM115.817 7.33167L113.092 24.6651C113.08 24.7439 113.084 24.8245 113.106 24.9014C113.128 24.9782 113.166 25.0494 113.218 25.1101C113.27 25.1708 113.334 25.2196 113.406 25.253C113.479 25.2864 113.558 25.3037 113.638 25.3037H116.377C116.832 25.3037 117.218 24.9737 117.288 24.5243L119.975 7.50347C119.987 7.42457 119.983 7.3439 119.961 7.26702C119.939 7.19014 119.901 7.11886 119.849 7.05808C119.797 6.9973 119.733 6.94847 119.661 6.91494C119.588 6.8814 119.509 6.86397 119.429 6.86383H116.362C116.231 6.86429 116.103 6.91163 116.003 6.99735C115.903 7.08308 115.837 7.20159 115.817 7.33167Z" fill="#179BD7"></path>
                    <path d="M7.07868 28.6116L7.58631 25.3872L6.45553 25.361H1.05595L4.80839 1.5681C4.81956 1.4954 4.85648 1.42914 4.91243 1.38139C4.96837 1.33364 5.03961 1.30759 5.11316 1.30798H14.2176C17.2401 1.30798 19.326 1.93694 20.415 3.17837C20.9256 3.76074 21.2508 4.36932 21.408 5.03905C21.573 5.74178 21.5759 6.58137 21.4148 7.60538L21.4031 7.68012V8.33626L21.9137 8.62551C22.3034 8.82297 22.6538 9.09009 22.9474 9.41365C23.3842 9.91158 23.6666 10.5444 23.786 11.2947C23.9093 12.0664 23.8685 12.9846 23.6666 14.0241C23.4337 15.2199 23.0571 16.2614 22.5485 17.1136C22.0997 17.8771 21.4964 18.5383 20.7771 19.0549C20.1015 19.5343 19.2988 19.8983 18.3913 20.1313C17.5119 20.3603 16.5093 20.4759 15.4095 20.4759H14.701C14.1943 20.4759 13.7022 20.6583 13.3159 20.9854C12.9301 21.316 12.6742 21.7728 12.5938 22.2744L12.5404 22.5646L11.6435 28.2476L11.6028 28.4563C11.5921 28.5223 11.5736 28.5553 11.5465 28.5777C11.5201 28.5992 11.4873 28.6112 11.4533 28.6116H7.07868Z" fill="#253B80"></path>
                    <path d="M22.3971 7.75583C22.3699 7.92957 22.3388 8.10719 22.3039 8.28967C21.1032 14.4541 16.9955 16.5837 11.7493 16.5837H9.07816C8.43658 16.5837 7.89594 17.0496 7.79597 17.6824L6.42836 26.3559L6.04108 28.8145C6.02565 28.912 6.03154 29.0117 6.05834 29.1067C6.08515 29.2018 6.13222 29.2899 6.19634 29.365C6.26045 29.44 6.34007 29.5003 6.42972 29.5417C6.51937 29.5831 6.61693 29.6045 6.71566 29.6046H11.4533C12.0143 29.6046 12.4909 29.1969 12.5792 28.6437L12.6258 28.4029L13.5178 22.7423L13.5751 22.4317C13.6624 21.8765 14.14 21.4688 14.701 21.4688H15.4095C19.9996 21.4688 23.5929 19.6052 24.6431 14.2124C25.0818 11.9596 24.8547 10.0785 23.6938 8.75557C23.3259 8.34632 22.8865 8.00754 22.3971 7.75583Z" fill="#179BD7"></path>
                    <path d="M21.1411 7.25499C20.7577 7.14408 20.3677 7.05753 19.9734 6.99583C19.1943 6.8761 18.4069 6.81865 17.6187 6.82403H10.4827C10.2111 6.82382 9.94839 6.92077 9.74207 7.09737C9.53575 7.27396 9.39941 7.51854 9.3577 7.78689L7.83964 17.4019L7.79597 17.6824C7.84326 17.3763 7.99854 17.0973 8.23372 16.8957C8.4689 16.6942 8.76844 16.5835 9.07816 16.5837H11.7493C16.9955 16.5837 21.1032 14.4541 22.3039 8.28967C22.3388 8.10719 22.3699 7.92957 22.3971 7.75583C22.0802 7.58968 21.75 7.4504 21.4099 7.33943C21.3208 7.30985 21.2311 7.2817 21.1411 7.25499Z" fill="#222D65"></path>
                    <path d="M9.3577 7.78689C9.39941 7.51854 9.53575 7.27396 9.74207 7.09737C9.94839 6.92077 10.2111 6.82382 10.4827 6.82403H17.6187C18.4641 6.82403 19.2532 6.87936 19.9734 6.99583C20.4608 7.07242 20.9404 7.18795 21.4099 7.33943C21.7642 7.45688 22.0933 7.59567 22.3971 7.75583C22.7542 5.47777 22.395 3.92672 21.1633 2.52223C19.8054 0.976022 17.3546 0.314056 14.2185 0.314056H5.11405C4.47343 0.314056 3.92697 0.779956 3.82797 1.41377L0.0357416 25.4513C0.0180781 25.5629 0.0247985 25.677 0.0554405 25.7857C0.0860826 25.8945 0.139919 25.9953 0.213247 26.0813C0.286574 26.1672 0.377653 26.2363 0.480217 26.2837C0.582782 26.3311 0.694398 26.3557 0.807388 26.3559L6.42836 26.3559L7.83964 17.4019L9.3577 7.78689Z" fill="#253B80"></path>
                  </svg>